<svg width="25" height="25" viewBox="0 0 25 25" fill="none" xmlns="http://www.w3.org/2000/svg">
<path d="M9.5 18.5H7.5C5.29086 18.5 3.5 16.7091 3.5 14.5V7.5C3.5 5.29086 5.29086 3.5 7.5 3.5H17.5C19.7091 3.5 21.5 5.29086 21.5 7.5V10.5" stroke="white" stroke-width="1.5" stroke-linecap="round" stroke-linejoin="round"/>
<path d="M7.5 8L11.7046 9.83327C12.2124 10.0547 12.7893 10.0555 13.2978 9.83568L17.5 8.01861" stroke="white" stroke-width="1.5" stroke-linecap="round" stroke-linejoin="round"/>
<path fill-rule="evenodd" clip-rule="evenodd" d="M15.5 20.5V21.9893C15.4964 22.1857 15.6082 22.3659 15.7858 22.4498C15.9633 22.5338 16.1736 22.5058 16.323 22.3783L18.5 20.5H20.6818C21.686 20.5 22.5 19.686 22.5 18.6818V15.3182C22.5 14.836 22.3084 14.3735 21.9675 14.0325C21.6265 13.6916 21.164 13.5 20.6818 13.5H14.3182C13.314 13.5 12.5 14.314 12.5 15.3182V18.6818C12.5 19.686 13.314 20.5 14.3182 20.5H15.5Z" stroke="white" stroke-width="1.5" stroke-linecap="round" stroke-linejoin="round"/>
</svg>
