<svg width="25" height="25" viewBox="0 0 25 25" fill="none" xmlns="http://www.w3.org/2000/svg">
<path fill-rule="evenodd" clip-rule="evenodd" d="M11.356 13.644C10.186 12.474 9.30402 11.164 8.71802 9.83499C8.59402 9.55399 8.66702 9.22499 8.88402 9.00799L9.70302 8.18999C10.374 7.51899 10.374 6.56999 9.78802 5.98399L8.61402 4.80999C7.83302 4.02899 6.56702 4.02899 5.78602 4.80999L5.13402 5.46199C4.39302 6.20299 4.08402 7.27199 4.28402 8.33199C4.77802 10.945 6.29602 13.806 8.74502 16.255C11.194 18.704 14.055 20.222 16.668 20.716C17.728 20.916 18.797 20.607 19.538 19.866L20.189 19.215C20.97 18.434 20.97 17.168 20.189 16.387L19.016 15.214C18.43 14.628 17.48 14.628 16.895 15.214L15.992 16.118C15.775 16.335 15.446 16.408 15.165 16.284C13.836 15.697 12.526 14.814 11.356 13.644Z" stroke="white" stroke-width="1.5" stroke-linecap="round" stroke-linejoin="round"/>
</svg>
