<svg width="25" height="25" viewBox="0 0 25 25" fill="none" xmlns="http://www.w3.org/2000/svg">
<path d="M14.5009 20.4133H21.5038" stroke="white" stroke-width="1.5" stroke-linecap="round" stroke-linejoin="round"/>
<path d="M8.49832 17.252L6.61954 19.1278L5.49707 18.0023" stroke="white" stroke-width="1.5" stroke-linecap="round" stroke-linejoin="round"/>
<circle cx="6.99772" cy="18.0023" r="4.50187" stroke="white" stroke-width="1.5" stroke-linecap="round" stroke-linejoin="round"/>
<path d="M20.2833 10.2791V20.4133" stroke="white" stroke-width="1.5" stroke-linecap="round" stroke-linejoin="round"/>
<path d="M13.5004 13.5004H16.5016V16.5017H14.5008" stroke="white" stroke-width="1.5" stroke-linecap="round" stroke-linejoin="round"/>
<path d="M4.74982 10.2771V10.2771C3.96715 10.2771 3.24067 9.87051 2.83132 9.20342C2.42197 8.53634 2.38852 7.70451 2.74298 7.00671L4.4787 3.59029C4.81989 2.91882 5.50926 2.49583 6.26245 2.49583H18.7376C19.4908 2.49583 20.1802 2.91882 20.5214 3.59029L22.2571 7.00671C22.6116 7.70451 22.5781 8.53634 22.1688 9.20342C21.7594 9.87051 21.0329 10.2771 20.2503 10.2771V10.2771" stroke="white" stroke-width="1.5" stroke-linecap="round" stroke-linejoin="round"/>
<path d="M15.0831 10.2771C16.5086 10.2776 17.665 9.12343 17.6672 7.69801C17.6672 8.38308 17.9394 9.0401 18.4238 9.52452C18.9082 10.0089 19.5652 10.2811 20.2503 10.2811" stroke="white" stroke-width="1.5" stroke-linecap="round" stroke-linejoin="round"/>
<path d="M9.91589 10.2771C11.3413 10.2776 12.4978 9.12343 12.5 7.69801C12.5 9.1246 13.6565 10.2811 15.083 10.2811" stroke="white" stroke-width="1.5" stroke-linecap="round" stroke-linejoin="round"/>
<path d="M4.74878 10.2771C6.1742 10.2776 7.33065 9.12343 7.33286 7.69801C7.33506 9.12304 8.4909 10.2771 9.91593 10.2771" stroke="white" stroke-width="1.5" stroke-linecap="round" stroke-linejoin="round"/>
</svg>
