<svg width="25" height="25" viewBox="0 0 25 25" fill="none" xmlns="http://www.w3.org/2000/svg">
<path fill-rule="evenodd" clip-rule="evenodd" d="M18.704 6.262C17.058 4.615 14.869 3.707 12.537 3.706C7.73002 3.706 3.81902 7.615 3.81802 12.42C3.81602 13.949 4.21702 15.452 4.98102 16.777L3.74402 21.293L8.36602 20.081C9.64502 20.777 11.077 21.142 12.533 21.142H12.537C17.342 21.142 21.253 17.232 21.255 12.427C21.256 10.099 20.35 7.91 18.704 6.262Z" stroke="white" stroke-width="1.5" stroke-linecap="round" stroke-linejoin="round"/>
<path d="M13.595 14.06L14.001 13.657C14.374 13.287 14.964 13.24 15.394 13.542C15.81 13.834 16.186 14.096 16.536 14.34C17.092 14.726 17.159 15.518 16.68 15.996L16.321 16.355" stroke="white" stroke-width="1.5" stroke-linecap="round" stroke-linejoin="round"/>
<path d="M8.6449 8.679L9.0039 8.32C9.4819 7.842 10.2739 7.909 10.6599 8.464C10.9029 8.814 11.1649 9.19 11.4579 9.606C11.7599 10.036 11.7139 10.626 11.3429 10.999L10.9399 11.405" stroke="white" stroke-width="1.5" stroke-linecap="round" stroke-linejoin="round"/>
<path d="M16.321 16.355C14.84 17.829 12.351 16.577 10.386 14.611" stroke="white" stroke-width="1.5" stroke-linecap="round" stroke-linejoin="round"/>
<path d="M10.3879 14.614C8.42294 12.648 7.17094 10.16 8.64494 8.679" stroke="white" stroke-width="1.5" stroke-linecap="round" stroke-linejoin="round"/>
<path d="M10.9399 11.405C11.2589 11.908 11.6679 12.406 12.1299 12.868L12.1319 12.87C12.5939 13.332 13.0919 13.741 13.5949 14.06" stroke="white" stroke-width="1.5" stroke-linecap="round" stroke-linejoin="round"/>
</svg>
